<svg xmlns="http://www.w3.org/2000/svg" viewBox="0 0 211.25 131.08" fill="none">
  <g transform="translate(-0.005 19.94)"><path d="M 75.525 53.78 L 6.525 15.53 C 6.525 15.53 0.005 11.41 0.005 7.62 L 0.005 1.67 C -0.033 1.068 0.152 0.474 0.525 0 L 22.865 4.13 L 91.505 44.61 L 75.525 53.78 Z" fill="rgb(241,112,103)" fill-rule="nonzero"></path></g>
  <g transform="translate(0.012 12.007)"><path d="M 105.618 43.513 L 28.468 3.673 C 28.468 3.673 16.988 -3.917 5.238 2.723 C -6.252 9.233 4.568 17.513 5.748 18.193 C 6.928 18.873 80.358 58.883 80.358 58.883 L 105.618 43.513 Z" fill="rgb(244,128,123)" fill-rule="nonzero"></path></g>
  <g transform="translate(108.171 7)"><path d="M 0.189 0 C 0.419 0.19 0.379 0.45 0.359 0.69 C 0.079 3.24 1.529 4.89 3.359 6.3 C 6.489 8.528 9.84 10.428 13.359 11.97 C 16.759 13.67 20.279 15.12 23.639 16.89 C 24.969 17.59 26.369 18.17 27.739 18.8 C 28.179 19 28.359 19.31 27.899 19.61 C 26.739 20.39 29.179 22.61 27.989 23.31 C 27.859 23.4 27.639 23.31 27.459 23.37 C 22.059 20.59 13.019 16.37 7.659 13.55 C 5.335 12.525 3.287 10.966 1.679 9 C 0.829 7.825 0.311 6.444 0.179 5 C -0.063 3.342 -0.06 1.657 0.189 0 Z" fill="rgb(217,175,101)" fill-rule="nonzero"></path></g>
  <g transform="translate(108.34 -0.002)"><path d="M 27.66 26.592 C 28.12 26.282 27.94 25.982 27.5 25.782 C 26.14 25.142 24.74 24.572 23.41 23.872 C 20.04 22.092 16.52 20.652 13.12 18.952 C 9.72 17.252 6.2 15.662 3.17 13.282 C 1.36 11.872 -0.09 10.222 0.17 7.672 C 0.207 7.552 0.211 7.425 0.181 7.303 C 0.151 7.182 0.088 7.07 0 6.982 C 0.74 4.162 2.88 2.732 5.35 1.632 C 9.3 -0.118 13.5 -0.198 17.66 0.192 C 20.786 0.509 23.824 1.419 26.61 2.872 C 31.91 5.582 37.18 8.332 42.47 11.052 C 44.25 11.972 46.05 12.852 47.82 13.792" fill="rgb(247,209,134)" fill-rule="nonzero"></path></g>
  <g transform="translate(40.02 21.66)"><path d="M 0 0 L 57.19 29.46 L 29.59 43.26 L 14.86 36.1 L 0 0 Z" fill="rgb(252,214,48)" fill-rule="nonzero"></path></g>
  <g transform="translate(54.48 56.95)"><path d="M 0 0 L 19.21 10.03 L 13.22 12.39 L 2.36 6.47 L 0 0 Z" fill="rgb(243,187,29)" fill-rule="nonzero"></path></g>
  <g transform="translate(4.362 3.514)"><path d="M 12.058 92.636 L 162.948 2.956 C 162.948 2.956 168.638 -0.254 173.478 0.016 C 176.418 0.176 184.948 3.736 185.968 7.856 C 188.688 18.856 173.668 25.856 173.668 25.856 L 157.638 39.236 L 11.788 126.796 C 9.136 125.566 6.619 124.065 4.278 122.316 C 2.548 121.016 1.028 118.646 0.278 114.496 C -2.142 101.226 12.058 92.636 12.058 92.636 Z" fill="rgb(247,209,134)" fill-rule="nonzero"></path></g>
  <g transform="translate(10.862 7.353)"><path d="M 12.058 92.647 L 162.948 2.957 C 162.948 2.957 177.378 -5.273 180.138 5.727 C 182.898 16.727 173.698 25.877 173.698 25.877 L 157.698 39.237 L 12.888 122.827 C 12.888 122.827 2.698 127.777 0.278 114.497 C -2.142 101.217 12.058 92.647 12.058 92.647 Z" fill="rgb(217,175,101)" fill-rule="nonzero"></path></g>
  <g transform="translate(154.242 40.93)"><path d="M 0.008 0 L 0.408 13.64 L 20.828 1.94 C 20.828 1.94 -0.462 0 0.008 0 Z" fill="rgb(193,142,59)" fill-rule="nonzero"></path></g>
  <g transform="translate(87.992 79.21)"><path d="M 0.008 0 L 0.008 13.93 L 20.808 1.93 C 20.808 1.93 -0.482 0 0.008 0 Z" fill="rgb(193,142,59)" fill-rule="nonzero"></path></g>
  <g transform="translate(154.256 24.094)"><path d="M 20.554 0.226 C 20.817 0.067 21.122 -0.011 21.429 0.001 C 21.737 0.014 22.034 0.116 22.284 0.296 C 24.684 1.356 26.954 2.846 29.424 3.666 C 38.564 8.296 42.024 9.926 51.134 14.596 C 55.574 16.696 57.294 22.236 56.824 23.296 C 56.564 23.906 54.014 29.776 43.424 30.056 C 35.424 30.276 28.144 26.216 21.124 22.836 C 12.314 18.496 9.044 17.456 0.364 12.836 C -0.136 12.546 -0.106 12.456 0.364 12.216 C 2.284 11.106 16.524 2.756 20.554 0.226 Z" fill="rgb(247,209,134)" fill-rule="nonzero"></path></g>
  <g transform="translate(153.96 36.17)"><path d="M 0.36 0 C -0.1 0.25 -0.14 0.33 0.36 0.62 C 9.03 5.21 12.31 6.25 21.11 10.62 C 31 15.62 43.37 21.52 53.89 14.92 C 55.225 13.764 56.343 12.379 57.19 10.83 C 57.344 12.142 57.344 13.468 57.19 14.78 C 55.96 17.7 52.71 19.78 50.05 20.78 C 37.96 24.6 31.87 20.06 21.2 15.21 L 2.04 5.83 L 0.65 5.1 C 0.04 4.73 -0.14 0.27 0.36 0 Z" fill="rgb(217,175,101)" fill-rule="nonzero"></path></g>
  <g transform="translate(88.17 74)"><path d="M 0 0 L 0 5.41 L 79.72 49.14 C 79.72 49.14 96.96 58.95 108.63 56.07 C 120.3 53.19 120.83 45.83 120.83 45.83 L 120.83 41 L 60.02 24.5 L 0 0 Z" fill="rgb(38,179,171)" fill-rule="nonzero"></path></g>
  <g transform="translate(88 60)"><path d="M 0 14.17 L 24 0 L 109.31 41.7 C 109.31 41.7 121 46.91 121 55.36 C 121 63.81 108.49 65.36 108.49 65.36 C 108.49 65.36 98 67.2 84.29 60.1 C 70.58 53 0 14.17 0 14.17 Z" fill="rgb(82,193,178)" fill-rule="nonzero"></path></g>
  <g transform="translate(87.96 59.91)"><path d="M 0 14.26 L 23.87 0 L 42.17 8.92 L 60.28 47.22 L 0 14.26 Z" fill="rgb(251,214,43)" fill-rule="nonzero"></path></g>
  <g transform="translate(87.96 74.17)"><path d="M 0 0 L 0 5.13 L 60.28 38.09 L 60.28 32.93 L 0 0 Z" fill="rgb(243,187,29)" fill-rule="nonzero"></path></g>
</svg>