<svg xmlns="http://www.w3.org/2000/svg" viewBox="0 0 211.25 211.25">
  <rect width="211.25" height="211.25" fill="#0e0e10"/>
  <g transform="translate(0, 40.085)">
    <defs><style>.a{fill:#f17067;}.b{fill:#f4807b;}.c{fill:#d9af65;}.d{fill:#f7d186;}.e{fill:#fcd630;}.f{fill:#f3bb1d;}.g{fill:#c18e3b;}.h{fill:#26b3ab;}.i{fill:#52c1b2;}.j{fill:#fbd62b;}</style></defs><path class="a" d="M75.52,73.72l-69-38.25S0,31.35,0,27.56V21.61a2.45,2.45,0,0,1,.52-1.67l22.34,4.13L91.5,64.55Z"/><path class="b" d="M105.63,55.52,28.48,15.68S17,8.09,5.25,14.73c-11.49,6.51-.67,14.79.51,15.47S80.37,70.89,80.37,70.89Z"/><path class="c" d="M108.36,7c.23.19.19.45.17.69-.28,2.55,1.17,4.2,3,5.61a56,56,0,0,0,10,5.67c3.4,1.7,6.92,3.15,10.28,4.92,1.33.7,2.73,1.28,4.1,1.91.44.2.62.51.16.81-1.16.78,1.28,3,.09,3.7-.13.09-.35,0-.53.06-5.4-2.78-14.44-7-19.8-9.82A16.15,16.15,0,0,1,109.85,16a8.08,8.08,0,0,1-1.5-4A17.1,17.1,0,0,1,108.36,7Z"/><path class="d" d="M136,26.59c.46-.31.28-.61-.16-.81-1.36-.64-2.76-1.21-4.09-1.91-3.37-1.78-6.89-3.22-10.29-4.92s-6.92-3.29-9.95-5.67c-1.81-1.41-3.26-3.06-3-5.61a.69.69,0,0,0-.17-.69c.74-2.82,2.88-4.25,5.35-5.35C117.64-.12,121.84-.2,126,.19a24.78,24.78,0,0,1,8.95,2.68c5.3,2.71,10.57,5.46,15.86,8.18,1.78.92,3.58,1.8,5.35,2.74"/><polygon class="e" points="40.02 21.66 97.21 51.12 69.61 64.92 54.88 57.76 40.02 21.66"/><polygon class="f" points="54.48 56.95 73.69 66.98 67.7 69.34 56.84 63.42 54.48 56.95"/><path class="d" d="M16.42,96.15,167.31,6.47S173,3.26,177.84,3.53c2.94.16,11.47,3.72,12.49,7.84,2.72,11-12.3,18-12.3,18L162,42.75,16.15,130.31a42.28,42.28,0,0,1-7.51-4.48c-1.73-1.3-3.25-3.67-4-7.82C2.22,104.74,16.42,96.15,16.42,96.15Z"/><path class="c" d="M22.92,100,173.81,10.31S188.24,2.08,191,13.08s-6.44,20.15-6.44,20.15l-16,13.36L23.75,130.18s-10.19,4.95-12.61-8.33S22.92,100,22.92,100Z"/><path class="g" d="M154.25,40.93l.4,13.64,20.42-11.7S153.78,40.93,154.25,40.93Z"/><path class="g" d="M88,79.21l0,13.93,20.8-12S87.51,79.21,88,79.21Z"/><path class="d" d="M174.81,24.32a1.57,1.57,0,0,1,1.73.07c2.4,1.06,4.67,2.55,7.14,3.37,9.14,4.63,12.6,6.26,21.71,10.93,4.44,2.1,6.16,7.64,5.69,8.7-.26.61-2.81,6.48-13.4,6.76-8,.22-15.28-3.84-22.3-7.22-8.81-4.34-12.08-5.38-20.76-10-.5-.29-.47-.38,0-.62C156.54,35.2,170.78,26.85,174.81,24.32Z"/><path class="c" d="M154.32,36.17c-.46.25-.5.33,0,.62,8.67,4.59,11.95,5.63,20.75,10,9.89,5,22.26,10.9,32.78,4.3A14.8,14.8,0,0,0,211.15,47a16.93,16.93,0,0,1,0,3.95c-1.23,2.92-4.48,5-7.14,6-12.09,3.82-18.18-.72-28.85-5.57L156,42l-1.39-.73C154,40.9,153.82,36.44,154.32,36.17Z"/><path class="h" d="M88.17,74v5.41l79.72,43.73s17.24,9.81,28.91,6.93S209,119.83,209,119.83V115l-60.81-16.5Z"/><path class="i" d="M88,74.17,112,60l85.31,41.7S209,106.91,209,115.36s-12.51,10-12.51,10S186,127.2,172.29,120.1,88,74.17,88,74.17Z"/><polygon class="j" points="87.96 74.17 111.83 59.91 130.13 68.83 148.24 107.13 87.96 74.17"/><polygon class="f" points="87.96 74.17 87.96 79.3 148.24 112.26 148.24 107.1 87.96 74.17"/>
  </g>
</svg>
