<svg xmlns="http://www.w3.org/2000/svg" viewBox="0 0 659.41 98.83" fill="none">
  <g transform="translate(169.9 10.235)"><path d="M 54.37 65.345 C 53.654 65.343 52.947 65.198 52.287 64.92 C 51.628 64.642 51.03 64.236 50.529 63.726 C 50.028 63.215 49.633 62.61 49.367 61.946 C 49.101 61.281 48.969 60.571 48.98 59.855 L 48.98 23.125 L 34.38 44.885 C 33.884 45.624 33.215 46.229 32.43 46.647 C 31.645 47.066 30.769 47.284 29.88 47.284 C 28.991 47.284 28.115 47.066 27.33 46.647 C 26.545 46.229 25.876 45.624 25.38 44.885 L 10.78 23.125 L 10.78 59.855 C 10.78 61.285 10.212 62.656 9.201 63.667 C 8.19 64.678 6.82 65.245 5.39 65.245 C 3.96 65.245 2.59 64.678 1.579 63.667 C 0.568 62.656 0 61.285 0 59.855 L 0 5.355 C 0.008 4.209 0.381 3.095 1.067 2.175 C 1.752 1.256 2.713 0.58 3.81 0.245 C 4.907 -0.101 6.087 -0.08 7.17 0.306 C 8.253 0.693 9.18 1.423 9.81 2.385 L 29.9 32.145 L 49.9 2.385 C 50.53 1.423 51.457 0.693 52.54 0.306 C 53.623 -0.08 54.803 -0.101 55.9 0.245 C 56.997 0.58 57.958 1.256 58.643 2.175 C 59.329 3.095 59.702 4.209 59.71 5.355 L 59.71 59.855 C 59.721 60.567 59.591 61.273 59.328 61.934 C 59.065 62.595 58.675 63.198 58.179 63.708 C 57.683 64.218 57.091 64.625 56.437 64.906 C 55.784 65.187 55.081 65.336 54.37 65.345 Z" fill="rgb(255,255,255)" fill-rule="nonzero"></path></g>
  <g transform="translate(237.55 24.6)"><path d="M 25.59 51.26 C 20.52 51.252 15.567 49.741 11.356 46.918 C 7.146 44.094 3.867 40.086 1.935 35.399 C 0.002 30.712 -0.496 25.557 0.501 20.587 C 1.499 15.616 3.948 11.053 7.539 7.475 C 11.13 3.897 15.701 1.464 20.675 0.484 C 25.649 -0.497 30.802 0.02 35.482 1.969 C 40.162 3.918 44.159 7.211 46.968 11.431 C 49.776 15.652 51.27 20.61 51.26 25.68 C 51.255 29.045 50.586 32.377 49.293 35.484 C 48 38.591 46.108 41.412 43.724 43.788 C 41.34 46.163 38.512 48.046 35.4 49.328 C 32.289 50.61 28.955 51.267 25.59 51.26 Z M 25.59 10.8 C 22.654 10.79 19.782 11.651 17.336 13.274 C 14.89 14.897 12.98 17.209 11.848 19.917 C 10.716 22.625 10.412 25.609 10.976 28.49 C 11.54 31.371 12.945 34.019 15.015 36.101 C 17.084 38.183 19.725 39.605 22.602 40.186 C 25.479 40.767 28.464 40.482 31.18 39.366 C 33.895 38.251 36.218 36.355 37.856 33.919 C 39.494 31.483 40.372 28.615 40.38 25.68 C 40.391 21.746 38.839 17.969 36.065 15.178 C 33.292 12.388 29.524 10.813 25.59 10.8 Z" fill="rgb(255,255,255)" fill-rule="nonzero"></path></g>
  <g transform="translate(292.524 10.29)"><path d="M 48.736 5.39 L 48.736 59.89 C 48.723 61.212 48.226 62.484 47.34 63.466 C 46.455 64.448 45.24 65.072 43.926 65.22 C 42.612 65.369 41.289 65.032 40.206 64.273 C 39.123 63.515 38.355 62.386 38.046 61.1 C 34.021 63.853 29.253 65.315 24.376 65.29 C 21.052 65.33 17.757 64.662 14.711 63.331 C 11.664 62 8.936 60.036 6.706 57.57 C 2.286 52.684 -0.11 46.298 0.006 39.71 C -0.14 33.075 2.257 26.635 6.706 21.71 C 8.936 19.244 11.664 17.28 14.711 15.949 C 17.757 14.618 21.052 13.95 24.376 13.99 C 29.213 13.957 33.946 15.386 37.956 18.09 L 37.956 5.39 C 37.956 3.96 38.524 2.59 39.535 1.579 C 40.546 0.568 41.917 0 43.346 0 C 44.776 0 46.147 0.568 47.158 1.579 C 48.168 2.59 48.736 3.96 48.736 5.39 Z M 37.956 39.71 C 37.956 31.06 32.186 24.83 24.376 24.83 C 16.566 24.83 10.796 31.06 10.796 39.71 C 10.796 48.36 16.476 54.5 24.376 54.5 C 32.276 54.5 37.956 48.27 37.956 39.71 Z" fill="rgb(255,255,255)" fill-rule="nonzero"></path></g>
  <g transform="translate(349.166 24.48)"><path d="M 24.364 51.52 C 21.021 51.509 17.718 50.791 14.673 49.412 C 11.627 48.033 8.908 46.025 6.694 43.52 C 2.277 38.636 -0.115 32.254 0.004 25.67 C 0.004 10.97 10.324 0 23.904 0 C 37.484 0 47.524 10.79 47.524 25.67 C 47.522 26.386 47.377 27.093 47.099 27.753 C 46.821 28.412 46.415 29.01 45.904 29.511 C 45.394 30.012 44.789 30.407 44.124 30.673 C 43.46 30.939 42.75 31.071 42.034 31.06 L 11.624 31.06 C 13.484 36.74 18.324 40.73 24.364 40.73 C 29.114 40.73 32.924 39.43 35.064 35.53 C 35.431 34.919 35.914 34.387 36.486 33.963 C 37.058 33.539 37.708 33.232 38.399 33.059 C 39.09 32.886 39.808 32.851 40.512 32.956 C 41.217 33.061 41.894 33.304 42.504 33.67 C 43.115 34.036 43.647 34.519 44.071 35.092 C 44.495 35.664 44.802 36.314 44.975 37.005 C 45.148 37.696 45.183 38.414 45.078 39.118 C 44.973 39.823 44.731 40.499 44.364 41.11 C 40.174 48.68 32.924 51.52 24.364 51.52 Z M 11.534 20.22 L 35.994 20.22 C 35.33 17.522 33.775 15.128 31.581 13.424 C 29.387 11.72 26.682 10.806 23.904 10.83 C 21.098 10.823 18.368 11.738 16.132 13.435 C 13.897 15.131 12.282 17.515 11.534 20.22 Z" fill="rgb(255,255,255)" fill-rule="nonzero"></path></g>
  <g transform="translate(405.06 10.29)"><path d="M 5.39 65.29 C 3.96 65.287 2.589 64.717 1.578 63.705 C 0.568 62.692 0 61.32 0 59.89 L 0 5.39 C 0.003 3.961 0.571 2.592 1.582 1.582 C 2.592 0.571 3.961 0.003 5.39 0 C 6.83 -0.003 8.213 0.561 9.24 1.57 C 10.267 2.578 10.856 3.951 10.88 5.39 L 10.88 59.89 C 10.859 61.331 10.271 62.706 9.243 63.717 C 8.216 64.728 6.831 65.293 5.39 65.29 Z" fill="rgb(255,255,255)" fill-rule="nonzero"></path></g>
  <g transform="translate(427.57 24.329)"><path d="M 48.73 25.581 C 48.859 32.213 46.464 38.647 42.03 43.581 C 39.787 46.03 37.056 47.983 34.013 49.312 C 30.969 50.642 27.681 51.319 24.36 51.301 C 19.561 51.302 14.87 49.878 10.88 47.211 L 10.88 69.101 C 10.859 70.542 10.271 71.917 9.243 72.928 C 8.216 73.939 6.831 74.504 5.39 74.501 C 4.681 74.501 3.98 74.361 3.325 74.09 C 2.67 73.818 2.076 73.42 1.575 72.919 C 1.075 72.417 0.678 71.822 0.407 71.167 C 0.137 70.512 -0.001 69.81 0 69.101 L 0 5.401 C -0.001 4.692 0.137 3.99 0.407 3.335 C 0.678 2.68 1.075 2.085 1.575 1.583 C 2.076 1.082 2.67 0.684 3.325 0.412 C 3.98 0.141 4.681 0.001 5.39 0.001 C 6.615 0.007 7.802 0.423 8.763 1.182 C 9.723 1.942 10.402 3.001 10.69 4.191 C 14.726 1.461 19.487 0.002 24.36 0.001 C 27.678 -0.029 30.966 0.638 34.01 1.959 C 37.054 3.28 39.786 5.226 42.03 7.671 C 46.429 12.59 48.82 18.982 48.73 25.581 Z M 37.94 25.581 C 37.94 17.021 32.27 10.791 24.36 10.791 C 16.45 10.791 10.88 17.021 10.88 25.581 C 10.88 34.141 16.55 40.371 24.36 40.371 C 32.17 40.371 37.94 34.141 37.94 25.581 Z" fill="rgb(255,255,255)" fill-rule="nonzero"></path></g>
  <g transform="translate(484.67 10.29)"><path d="M 5.39 65.29 C 4.681 65.29 3.98 65.15 3.325 64.879 C 2.67 64.607 2.076 64.209 1.575 63.708 C 1.075 63.206 0.678 62.611 0.407 61.956 C 0.137 61.301 -0.001 60.599 0 59.89 L 0 5.39 C 0 3.96 0.568 2.59 1.579 1.579 C 2.59 0.568 3.96 0 5.39 0 C 6.83 -0.003 8.213 0.561 9.24 1.57 C 10.267 2.578 10.856 3.951 10.88 5.39 L 10.88 59.89 C 10.859 61.331 10.271 62.706 9.243 63.717 C 8.216 64.728 6.831 65.293 5.39 65.29 Z" fill="rgb(255,255,255)" fill-rule="nonzero"></path></g>
  <g transform="translate(503.917 24.278)"><path d="M 48.733 5.452 L 48.733 45.902 C 48.686 47.198 48.174 48.434 47.293 49.386 C 46.411 50.338 45.218 50.942 43.929 51.088 C 42.64 51.234 41.341 50.914 40.268 50.184 C 39.196 49.454 38.42 48.364 38.083 47.112 C 34.055 49.867 29.283 51.328 24.403 51.302 C 21.079 51.341 17.784 50.673 14.738 49.342 C 11.691 48.011 8.963 46.047 6.733 43.582 C 2.342 38.675 -0.058 32.306 0.003 25.722 C -0.099 19.096 2.289 12.673 6.693 7.722 C 8.923 5.256 11.651 3.292 14.698 1.961 C 17.744 0.63 21.039 -0.038 24.363 0.002 C 29.262 -0.018 34.05 1.461 38.083 4.242 C 38.392 2.956 39.16 1.827 40.243 1.068 C 41.326 0.309 42.649 -0.028 43.963 0.121 C 45.277 0.27 46.491 0.894 47.377 1.876 C 48.263 2.857 48.76 4.129 48.773 5.452 L 48.733 5.452 Z M 37.943 25.722 C 37.943 17.072 32.183 10.842 24.363 10.842 C 16.543 10.842 10.793 17.072 10.793 25.722 C 10.793 34.372 16.463 40.512 24.363 40.512 C 32.263 40.512 37.943 34.282 37.943 25.722 Z" fill="rgb(255,255,255)" fill-rule="nonzero"></path></g>
  <g transform="translate(561.435 24.329)"><path d="M 42.565 22.231 L 42.565 45.851 C 42.505 47.255 41.905 48.581 40.89 49.553 C 39.876 50.525 38.525 51.067 37.12 51.067 C 35.715 51.067 34.364 50.525 33.35 49.553 C 32.335 48.581 31.735 47.255 31.675 45.851 L 31.675 22.231 C 31.675 16.741 28.615 10.791 21.675 10.791 C 15.445 10.791 10.795 15.721 10.795 22.231 L 10.795 45.851 C 10.826 46.579 10.71 47.306 10.453 47.988 C 10.196 48.669 9.804 49.292 9.3 49.819 C 8.796 50.345 8.19 50.764 7.52 51.05 C 6.85 51.336 6.129 51.483 5.4 51.483 C 4.671 51.483 3.95 51.336 3.28 51.05 C 2.61 50.764 2.004 50.345 1.5 49.819 C 0.996 49.292 0.604 48.669 0.347 47.988 C 0.09 47.306 -0.026 46.579 0.005 45.851 L 0.005 5.401 C 0.009 4.168 0.435 2.973 1.211 2.015 C 1.988 1.057 3.068 0.393 4.273 0.132 C 5.479 -0.128 6.737 0.032 7.839 0.584 C 8.942 1.137 9.822 2.049 10.335 3.171 C 13.739 1.064 17.671 -0.036 21.675 0.001 C 33.565 0.001 42.565 9.581 42.565 22.231 Z" fill="rgb(255,255,255)" fill-rule="nonzero"></path></g>
  <g transform="translate(611.886 24.48)"><path d="M 24.374 51.52 C 21.031 51.511 17.727 50.794 14.681 49.415 C 11.636 48.036 8.917 46.027 6.704 43.52 C 2.28 38.64 -0.116 32.256 0.004 25.67 C 0.004 10.97 10.324 0 23.904 0 C 37.484 0 47.524 10.79 47.524 25.67 C 47.522 26.385 47.378 27.092 47.1 27.75 C 46.823 28.409 46.418 29.006 45.908 29.507 C 45.398 30.009 44.795 30.404 44.132 30.67 C 43.468 30.937 42.759 31.069 42.044 31.06 L 11.624 31.06 C 13.484 36.74 18.324 40.73 24.374 40.73 C 29.114 40.73 32.924 39.43 35.064 35.53 C 35.431 34.919 35.914 34.387 36.486 33.963 C 37.058 33.539 37.708 33.232 38.399 33.059 C 39.09 32.886 39.808 32.851 40.512 32.956 C 41.217 33.061 41.894 33.304 42.504 33.67 C 43.115 34.036 43.647 34.519 44.071 35.092 C 44.495 35.664 44.803 36.314 44.975 37.005 C 45.148 37.696 45.183 38.414 45.078 39.118 C 44.973 39.823 44.731 40.499 44.364 41.11 C 40.184 48.68 32.924 51.52 24.374 51.52 Z M 11.534 20.22 L 35.994 20.22 C 35.33 17.522 33.775 15.128 31.581 13.424 C 29.387 11.72 26.682 10.806 23.904 10.83 C 21.098 10.823 18.368 11.738 16.133 13.435 C 13.897 15.131 12.282 17.515 11.534 20.22 Z" fill="rgb(255,255,255)" fill-rule="nonzero"></path></g>
  <g transform="translate(-0.003 13)"><path d="M 49.283 35.11 L 4.283 10.11 C 4.283 10.11 0.003 7.46 0.003 5 L 0.003 1.1 C -0.023 0.704 0.098 0.312 0.343 0 L 14.923 2.7 L 59.713 29.13 L 49.283 35.11 Z" fill="rgb(241,112,103)" fill-rule="nonzero"></path></g>
  <g transform="translate(-0.052 7.834)"><path d="M 68.982 28.396 L 18.642 2.396 C 18.642 2.396 11.122 -2.554 3.482 1.776 C -4.158 6.106 3.042 11.436 3.812 11.876 C 4.582 12.316 52.502 38.436 52.502 38.436 L 68.982 28.396 Z" fill="rgb(244,128,123)" fill-rule="nonzero"></path></g>
  <g transform="translate(70.611 4.54)"><path d="M 0.099 0 C 0.157 0.057 0.199 0.13 0.218 0.209 C 0.237 0.289 0.234 0.372 0.209 0.45 C 0.029 2.11 0.979 3.19 2.209 4.11 C 4.241 5.56 6.416 6.8 8.699 7.81 C 10.919 8.92 13.219 9.86 15.409 11.02 C 16.279 11.48 17.189 11.85 18.089 12.26 C 18.369 12.39 18.489 12.59 18.189 12.8 C 17.439 13.3 19.029 14.73 18.259 15.21 C 18.169 15.27 18.019 15.21 17.899 15.21 C 14.379 13.39 8.489 10.65 4.979 8.8 C 3.48 8.113 2.161 7.086 1.129 5.8 C 0.562 5.031 0.216 4.122 0.129 3.17 C -0.032 2.12 -0.042 1.053 0.099 0 Z" fill="rgb(217,175,101)" fill-rule="nonzero"></path></g>
  <g transform="translate(70.72 -0.038)"><path d="M 18.04 17.388 C 18.33 17.188 18.22 16.988 17.93 16.858 C 17.04 16.448 16.13 16.068 15.26 15.618 C 13.06 14.458 10.77 13.508 8.55 12.408 C 6.263 11.4 4.085 10.16 2.05 8.708 C 0.87 7.788 -0.07 6.708 0.11 5.038 C 0.134 4.96 0.137 4.877 0.117 4.797 C 0.098 4.718 0.057 4.646 0 4.588 C 0.48 2.748 1.88 1.818 3.49 1.098 C 6.03 0.096 8.787 -0.228 11.49 0.158 C 13.529 0.372 15.51 0.965 17.33 1.908 C 20.79 3.678 24.28 5.478 27.68 7.248 C 28.84 7.848 30.02 8.428 31.17 9.038" fill="rgb(247,209,134)" fill-rule="nonzero"></path></g>
  <g transform="translate(26.12 14.14)"><path d="M 0 0 L 37.32 19.22 L 19.31 28.23 L 9.7 23.56 L 0 0 Z" fill="rgb(252,214,48)" fill-rule="nonzero"></path></g>
  <g transform="translate(35.55 37.16)"><path d="M 0 0 L 12.54 6.55 L 8.63 8.09 L 1.54 4.23 L 0 0 Z" fill="rgb(243,187,29)" fill-rule="nonzero"></path></g>
  <g transform="translate(2.825 2.289)"><path d="M 7.895 60.461 L 106.365 1.931 C 106.365 1.931 110.045 -0.169 113.235 0.011 C 115.155 0.121 120.715 2.441 121.385 5.131 C 123.165 12.301 113.385 16.891 113.385 16.891 L 102.905 25.611 L 7.715 82.711 C 5.982 81.91 4.34 80.928 2.815 79.781 C 1.685 78.981 0.695 77.431 0.175 74.711 C -1.375 66.061 7.895 60.461 7.895 60.461 Z" fill="rgb(247,209,134)" fill-rule="nonzero"></path></g>
  <g transform="translate(7.089 4.801)"><path d="M 7.911 60.459 L 106.341 1.929 C 106.341 1.929 115.761 -3.441 117.541 3.739 C 119.321 10.919 113.341 16.889 113.341 16.889 L 102.911 25.599 L 8.411 80.199 C 8.411 80.199 1.761 83.419 0.181 74.759 C -1.399 66.099 7.911 60.459 7.911 60.459 Z" fill="rgb(217,175,101)" fill-rule="nonzero"></path></g>
  <g transform="translate(100.655 26.71)"><path d="M 0.005 0 L 0.265 8.9 L 13.595 1.29 C 13.595 1.29 -0.305 0 0.005 0 Z" fill="rgb(193,142,59)" fill-rule="nonzero"></path></g>
  <g transform="translate(57.415 51.69)"><path d="M 0.005 0 L 0.005 9.09 L 13.585 1.31 C 13.585 1.31 -0.305 0 0.005 0 Z" fill="rgb(193,142,59)" fill-rule="nonzero"></path></g>
  <g transform="translate(100.67 15.719)"><path d="M 13.41 0.151 C 13.581 0.044 13.781 -0.008 13.983 0.001 C 14.184 0.01 14.379 0.08 14.54 0.201 C 16.11 0.891 17.59 1.861 19.2 2.401 C 25.2 5.401 27.42 6.481 33.37 9.531 C 36.27 10.901 37.37 14.531 37.08 15.211 C 36.91 15.601 35.25 19.431 28.34 19.621 C 23.12 19.761 18.34 17.111 13.78 14.911 C 8.04 12.081 5.9 11.391 0.24 8.401 C -0.09 8.211 -0.07 8.161 0.24 8.001 C 1.49 7.281 10.78 1.801 13.41 0.151 Z" fill="rgb(247,209,134)" fill-rule="nonzero"></path></g>
  <g transform="translate(100.477 23.61)"><path d="M 0.233 0 C -0.067 0.15 -0.087 0.21 0.233 0.4 C 5.903 3.4 8.033 4.08 13.783 6.91 C 20.233 10.16 28.303 14.02 35.173 9.71 C 36.04 8.956 36.768 8.056 37.323 7.05 C 37.422 7.907 37.422 8.773 37.323 9.63 C 36.334 11.494 34.665 12.905 32.663 13.57 C 24.773 16.07 20.803 13.1 13.843 9.94 L 1.343 3.77 L 0.433 3.29 C -0.007 3.08 -0.097 0.17 0.233 0 Z" fill="rgb(217,175,101)" fill-rule="nonzero"></path></g>
  <g transform="translate(57.54 48.3)"><path d="M 0 0 L 0 3.53 L 52 32.06 C 52 32.06 63.25 38.46 70.86 36.59 C 78.47 34.72 78.86 29.9 78.86 29.9 L 78.86 26.76 L 39.17 15.99 L 0 0 Z" fill="rgb(38,179,171)" fill-rule="nonzero"></path></g>
  <g transform="translate(57.43 39.14)"><path d="M 0 9.27 L 15.66 0 L 71.33 27.21 C 71.33 27.21 78.95 30.63 78.95 36.15 C 78.95 41.67 70.78 42.66 70.78 42.66 C 70.78 42.66 63.94 43.87 55 39.24 C 46.06 34.61 0 9.27 0 9.27 Z" fill="rgb(82,193,178)" fill-rule="nonzero"></path></g>
  <g transform="translate(57.4 39.1)"><path d="M 0 9.3 L 15.58 0 L 27.52 5.82 L 39.34 30.81 L 0 9.3 Z" fill="rgb(251,214,43)" fill-rule="nonzero"></path></g>
  <g transform="translate(57.4 48.4)"><path d="M 0 0 L 0 3.35 L 39.34 24.86 L 39.34 21.49 L 0 0 Z" fill="rgb(243,187,29)" fill-rule="nonzero"></path></g>
</svg>