<svg xmlns="http://www.w3.org/2000/svg" viewBox="0 0 556.19 270.43"><defs><style>.a{fill:#f17067;}.b{fill:#f4807b;}.c{fill:#d9af65;}.d{fill:#f7d186;}.e{fill:#fcd630;}.f{fill:#f3bb1d;}.g{fill:#c18e3b;}.h{fill:#26b3ab;}.i{fill:#52c1b2;}.j{fill:#fbd62b;}.k{fill:#183e54;}</style></defs><path class="a" d="M248,73.72,179,35.47s-6.55-4.12-6.55-7.91V21.61a2.45,2.45,0,0,1,.52-1.67l22.35,4.13L264,64.55Z"/><path class="b" d="M278.1,55.52,201,15.68s-11.52-7.59-23.23-.95c-11.5,6.51-.68,14.79.5,15.47s74.61,40.69,74.61,40.69Z"/><path class="c" d="M280.83,7a.69.69,0,0,1,.17.69c-.28,2.55,1.17,4.2,3,5.61a56,56,0,0,0,10,5.67c3.4,1.7,6.92,3.15,10.28,4.92,1.33.7,2.73,1.28,4.1,1.91.44.2.62.51.16.81-1.15.78,1.28,3,.1,3.7-.14.09-.36,0-.54.06-5.4-2.78-14.43-7-19.8-9.82A16.24,16.24,0,0,1,282.32,16a8.08,8.08,0,0,1-1.5-4A17.1,17.1,0,0,1,280.83,7Z"/><path class="d" d="M308.48,26.59c.45-.31.27-.61-.16-.81-1.37-.64-2.77-1.21-4.1-1.91-3.36-1.78-6.88-3.22-10.28-4.92a56,56,0,0,1-10-5.67c-1.8-1.41-3.25-3.06-3-5.61,0-.24.06-.5-.17-.69.74-2.82,2.87-4.25,5.34-5.35C290.12-.12,294.31-.2,298.45.19a24.9,24.9,0,0,1,8.95,2.68c5.29,2.71,10.56,5.46,15.85,8.18,1.78.92,3.58,1.8,5.36,2.74"/><polygon class="e" points="212.5 21.66 269.69 51.12 242.08 64.92 227.36 57.76 212.5 21.66"/><polygon class="f" points="226.95 56.95 246.16 66.98 240.17 69.34 229.31 63.42 226.95 56.95"/><path class="d" d="M188.89,96.15,339.78,6.47s5.64-3.21,10.53-2.94c2.94.16,11.47,3.72,12.49,7.84,2.73,11-12.3,18-12.3,18l-16,13.36L188.62,130.31a42.67,42.67,0,0,1-7.51-4.48c-1.73-1.3-3.24-3.67-4-7.82C174.69,104.74,188.89,96.15,188.89,96.15Z"/><path class="c" d="M195.4,100,346.28,10.31s14.44-8.23,17.16,2.77S357,33.23,357,33.23L341,46.59,196.23,130.18s-10.2,4.95-12.62-8.33S195.4,100,195.4,100Z"/><path class="g" d="M326.72,40.93l.4,13.64,20.42-11.7S326.25,40.93,326.72,40.93Z"/><path class="g" d="M260.46,79.21V93.14l20.81-12S260,79.21,260.46,79.21Z"/><path class="d" d="M347.28,24.32a1.57,1.57,0,0,1,1.73.07c2.4,1.06,4.67,2.55,7.15,3.37,9.13,4.63,12.59,6.26,21.71,10.93,4.44,2.1,6.15,7.64,5.69,8.7-.27.61-2.82,6.48-13.4,6.76-8,.22-15.28-3.84-22.31-7.22-8.8-4.34-12.08-5.38-20.76-10-.5-.29-.47-.38,0-.62C329,35.2,343.25,26.85,347.28,24.32Z"/><path class="c" d="M326.79,36.17c-.46.25-.49.33,0,.62,8.68,4.59,11.95,5.63,20.76,10,9.89,5,22.25,10.9,32.77,4.3a15,15,0,0,0,3.3-4.07,17.61,17.61,0,0,1-.05,3.95c-1.22,2.92-4.48,5-7.13,6-12.09,3.82-18.19-.72-28.85-5.57L328.45,42l-1.39-.73C326.43,40.9,326.29,36.44,326.79,36.17Z"/><path class="h" d="M260.64,74v5.41l79.72,43.73s17.25,9.81,28.91,6.93,12.2-10.24,12.2-10.24V115l-60.81-16.5Z"/><path class="i" d="M260.47,74.17l24-14.2,85.3,41.7s11.67,5.24,11.67,13.69-12.51,10-12.51,10-10.49,1.86-24.18-5.24S260.47,74.17,260.47,74.17Z"/><polygon class="j" points="260.43 74.17 284.31 59.91 302.6 68.83 320.71 107.13 260.43 74.17"/><polygon class="f" points="260.43 74.17 260.43 79.3 320.71 112.26 320.71 107.1 260.43 74.17"/><path class="k" d="M61.81,244a6.16,6.16,0,0,1-6.13-6.24V196.05L39.09,220.77a6.14,6.14,0,0,1-10.24,0L12.26,196.05v41.73A6.16,6.16,0,0,1,6.13,244,6.16,6.16,0,0,1,0,237.78V175.87a6.13,6.13,0,0,1,4.33-5.82,6,6,0,0,1,6.87,2.43L34,206.3l22.72-33.82a6,6,0,0,1,6.87-2.43,6.13,6.13,0,0,1,4.33,5.82v61.91A6.16,6.16,0,0,1,61.81,244Z"/><path class="k" d="M106,244.34a29.11,29.11,0,1,1,29.16-29.06A29.12,29.12,0,0,1,106,244.34Zm0-46a16.86,16.86,0,1,0,16.8,16.91A16.87,16.87,0,0,0,106,198.37Z"/><path class="k" d="M194.73,176v61.92a6.16,6.16,0,0,1-12.15,1.37A27.23,27.23,0,0,1,167.05,244,26.66,26.66,0,0,1,147,235.25a31,31,0,0,1,0-40.68,26.62,26.62,0,0,1,20.08-8.77,27.31,27.31,0,0,1,15.43,4.65V176a6.13,6.13,0,1,1,12.25,0Zm-12.25,39c0-9.83-6.56-16.91-15.43-16.91s-15.43,7.08-15.43,16.91,6.45,16.8,15.43,16.8S182.48,224.68,182.48,215Z"/><path class="k" d="M231.4,244.55a26.92,26.92,0,0,1-20.08-9.09,29.43,29.43,0,0,1-7.61-20.29c0-16.69,11.73-29.16,27.16-29.16s26.84,12.26,26.84,29.16a6.16,6.16,0,0,1-6.24,6.13H216.92c2.11,6.45,7.61,11,14.48,11,5.38,0,9.72-1.48,12.15-5.92a6.16,6.16,0,0,1,10.56,6.34C249.36,241.27,241.12,244.55,231.4,244.55Zm-14.59-35.61H244.6c-2.11-7.29-7.92-10.67-13.73-10.67A14.55,14.55,0,0,0,216.81,208.94Z"/><path class="k" d="M273.34,244a6.14,6.14,0,0,1-6.13-6.13V176a6.14,6.14,0,0,1,6.13-6.13,6.23,6.23,0,0,1,6.24,6.13v61.92A6.23,6.23,0,0,1,273.34,244Z"/><path class="k" d="M348.15,214.86a29.72,29.72,0,0,1-7.61,20.39A27,27,0,0,1,320.47,244a27.58,27.58,0,0,1-15.33-4.65v24.94a6.21,6.21,0,0,1-6.23,6.12,6.13,6.13,0,0,1-6.13-6.12V191.93a6.14,6.14,0,0,1,6.13-6.13,6.22,6.22,0,0,1,6,4.75,27.83,27.83,0,0,1,15.54-4.75,26.91,26.91,0,0,1,20.07,8.66A29.9,29.9,0,0,1,348.15,214.86Zm-12.26,0c0-9.73-6.44-16.81-15.42-16.81s-15.33,7.08-15.33,16.81,6.45,16.8,15.33,16.8S335.89,224.58,335.89,214.86Z"/><path class="k" d="M363.79,244a6.13,6.13,0,0,1-6.13-6.13V176a6.13,6.13,0,0,1,6.13-6.13A6.22,6.22,0,0,1,370,176v61.92A6.22,6.22,0,0,1,363.79,244Z"/><path class="k" d="M434.9,191.93v46a6.16,6.16,0,0,1-12.15,1.37A27.24,27.24,0,0,1,407.21,244a26.62,26.62,0,0,1-20.07-8.77,31,31,0,0,1,0-40.68,26.59,26.59,0,0,1,20.07-8.77,27.3,27.3,0,0,1,15.54,4.75,6.16,6.16,0,0,1,12.15,1.38Zm-12.26,23c0-9.83-6.55-16.91-15.43-16.91s-15.42,7.08-15.42,16.91,6.44,16.8,15.42,16.8S422.64,224.68,422.64,215Z"/><path class="k" d="M493.22,211.05v26.84a6.18,6.18,0,0,1-12.36,0V211.05c0-6.23-3.49-13-11.31-13-7.08,0-12.36,5.6-12.36,13v26.84a6.13,6.13,0,0,1-12.26,0v-46a6.14,6.14,0,0,1,11.73-2.54,24.18,24.18,0,0,1,12.89-3.59C483,185.8,493.22,196.68,493.22,211.05Z"/><path class="k" d="M529.88,244.55a26.89,26.89,0,0,1-20.07-9.09,29.43,29.43,0,0,1-7.61-20.29c0-16.69,11.73-29.16,27.15-29.16s26.84,12.26,26.84,29.16A6.15,6.15,0,0,1,550,221.3H515.41c2.11,6.45,7.6,11,14.47,11,5.39,0,9.72-1.48,12.15-5.92a6.16,6.16,0,0,1,10.57,6.34C547.85,241.27,539.6,244.55,529.88,244.55ZM515.3,208.94h27.79c-2.11-7.29-7.92-10.67-13.74-10.67A14.55,14.55,0,0,0,515.3,208.94Z"/></svg>