<svg width="1200" height="437" viewBox="0 0 1200 437" fill="none" xmlns="http://www.w3.org/2000/svg">
<g filter="url(#filter0_f_2209_2598)">
<path d="M-663.851 908.439L519.464 225.252C640.425 155.416 836.542 155.416 957.503 225.253C1078.46 295.09 1078.46 408.317 957.503 478.154L-225.812 1161.34C-346.773 1231.18 -542.89 1231.18 -663.851 1161.34C-784.812 1091.5 -784.812 978.276 -663.851 908.439Z" stroke="url(#paint0_linear_2209_2598)" stroke-width="1.53181"/>
</g>
<g filter="url(#filter1_f_2209_2598)">
<path d="M-621.4 932.949L561.915 249.761C659.432 193.46 817.536 193.46 915.053 249.761C1011.81 305.622 1012.56 395.92 917.32 452.319L915.048 453.647L-268.263 1136.83C-365.779 1193.13 -523.884 1193.13 -621.4 1136.83C-718.916 1080.53 -718.916 989.25 -621.4 932.949Z" stroke="url(#paint1_linear_2209_2598)" stroke-width="1.53181"/>
</g>
<g filter="url(#filter2_f_2209_2598)">
<path d="M-578.949 957.458L604.366 274.271C678.437 231.505 798.531 231.505 872.602 274.271C945.508 316.363 946.653 384.202 876.044 427.097L874.363 428.105L872.493 429.2L-310.713 1112.32C-384.784 1155.09 -504.878 1155.09 -578.949 1112.32C-653.02 1069.56 -653.02 1000.22 -578.949 957.458Z" stroke="url(#paint2_linear_2209_2598)" stroke-width="1.53181"/>
</g>
<g filter="url(#filter3_f_2209_2598)">
<path d="M-748.753 859.422L434.562 176.234C602.413 79.3258 874.553 79.3259 1042.4 176.234C1210.25 273.143 1210.26 430.264 1042.4 527.172L-140.911 1210.36C-308.762 1307.27 -580.902 1307.27 -748.753 1210.36C-916.604 1113.45 -916.603 956.331 -748.753 859.422Z" stroke="url(#paint3_linear_2209_2598)" stroke-width="1.53181"/>
</g>
<g filter="url(#filter4_f_2209_2598)">
<path d="M-706.302 883.931L477.014 200.743C621.42 117.371 855.548 117.371 999.953 200.744C1144.36 284.116 1144.36 419.29 999.954 502.663L-183.361 1185.85C-327.767 1269.22 -561.896 1269.22 -706.302 1185.85C-850.708 1102.48 -850.708 967.303 -706.302 883.931Z" stroke="url(#paint4_linear_2209_2598)" stroke-width="1.53181"/>
</g>
<g clip-path="url(#clip0_2209_2598)">
<path d="M75.5953 381.828L64.0926 375.164C64.0926 375.164 63.0073 374.45 63.0193 373.811L63.0382 372.809C63.0337 372.707 63.0668 372.608 63.1312 372.529L66.8816 373.296L78.3166 380.334L75.5953 381.828Z" fill="#F17067"/>
<path d="M80.7259 378.857L67.8552 371.9C67.8552 371.9 65.9453 370.585 63.9447 371.666C61.9883 372.726 63.7848 374.155 63.9814 374.274C64.178 374.392 76.4215 381.366 76.4215 381.366L80.7259 378.857Z" fill="#F4807B"/>
<path d="M81.3399 370.692C81.3781 370.725 81.3705 370.768 81.3664 370.809C81.3111 371.237 81.5501 371.52 81.8539 371.763C82.3742 372.149 82.9326 372.479 83.5206 372.75C84.088 373.048 84.6764 373.303 85.2368 373.612C85.4586 373.734 85.6927 373.836 85.9215 373.947C85.995 373.982 86.0243 374.035 85.9458 374.084C85.7479 374.212 86.1519 374.593 85.9492 374.707C85.9271 374.722 85.8903 374.706 85.8598 374.716C84.9589 374.23 83.4493 373.491 82.5553 372.999C82.1671 372.818 81.8269 372.549 81.5623 372.213C81.4229 372.012 81.34 371.778 81.3223 371.534C81.2869 371.254 81.2928 370.97 81.3399 370.692Z" fill="#D9AF65"/>
<path d="M85.9342 374.08C86.0127 374.029 85.9833 373.978 85.9098 373.943C85.6827 373.83 85.4487 373.73 85.2269 373.608C84.6648 373.297 84.0763 373.043 83.5089 372.746C82.9416 372.449 82.3536 372.17 81.8507 371.759C81.5503 371.516 81.3112 371.233 81.3631 370.805C81.3697 370.785 81.3708 370.763 81.3661 370.743C81.3614 370.722 81.3513 370.703 81.3367 370.688C81.4703 370.215 81.8354 369.981 82.255 369.804C82.926 369.521 83.6339 369.521 84.3334 369.6C84.8591 369.664 85.3679 369.827 85.8327 370.08C86.717 370.554 87.5961 371.034 88.4786 371.509C88.7756 371.669 89.076 371.823 89.3712 371.987" fill="#F7D186"/>
<path d="M69.7803 372.944L79.3214 378.089L74.6277 380.326L72.169 379.073L69.7803 372.944Z" fill="#FCD630"/>
<path d="M72.104 378.936L75.3084 380.686L74.2918 381.065L72.481 380.033L72.104 378.936Z" fill="#F3BB1D"/>
<path d="M65.5676 385.418L91.273 370.79C91.273 370.79 92.2418 370.267 93.0564 370.328C93.5512 370.364 94.9769 370.991 95.1356 371.688C95.5589 373.55 93.0062 374.682 93.0062 374.682L90.2631 376.885L65.4135 391.172C64.9707 390.957 64.5515 390.696 64.1626 390.394C63.8752 390.169 63.6267 389.765 63.5136 389.063C63.148 386.82 65.5676 385.418 65.5676 385.418Z" fill="#F7D186"/>
<path d="M66.6503 386.088L92.3558 371.458C92.3558 371.458 94.813 370.117 95.243 371.979C95.673 373.841 94.094 375.353 94.094 375.353L91.356 377.553L66.6942 391.175C66.6942 391.175 64.9618 391.976 64.5963 389.732C64.2308 387.487 66.6503 386.088 66.6503 386.088Z" fill="#D9AF65"/>
<path d="M88.9632 376.554L88.9872 378.853L92.4646 376.947C92.4646 376.947 88.884 376.552 88.9632 376.554Z" fill="#C18E3B"/>
<path d="M77.6804 382.792L77.6361 385.139L81.1784 383.183C81.1784 383.183 77.5978 382.79 77.6804 382.792Z" fill="#C18E3B"/>
<path d="M92.4798 373.821C92.5247 373.795 92.5762 373.783 92.628 373.786C92.6798 373.789 92.7295 373.807 92.771 373.839C93.172 374.025 93.5497 374.283 93.9632 374.429C95.4883 375.238 96.066 375.524 97.5859 376.339C98.3272 376.707 98.5994 377.646 98.5168 377.823C98.4711 377.925 98.0228 378.906 96.2378 378.919C94.8894 378.931 93.6758 378.224 92.5039 377.632C91.0335 376.873 90.4859 376.687 89.0383 375.881C88.955 375.831 88.9603 375.816 89.0403 375.777C89.3673 375.596 91.7928 374.235 92.4798 373.821Z" fill="#F7D186"/>
<path d="M88.9901 375.752C88.9118 375.793 88.9048 375.806 88.9881 375.857C90.4342 376.657 90.9835 376.843 92.4521 377.607C94.1024 378.481 96.1676 379.514 97.9608 378.436C98.1894 378.245 98.3821 378.016 98.5298 377.757C98.5516 377.979 98.5474 378.202 98.5172 378.423C98.3007 378.911 97.7466 379.251 97.2953 379.411C95.2463 380.016 94.2348 379.232 92.4527 378.381L89.2546 376.74L89.0228 376.612C88.9212 376.548 88.905 375.796 88.9901 375.752Z" fill="#D9AF65"/>
<path d="M77.7256 381.915L77.7084 382.826L90.9997 390.447C90.9997 390.447 93.8729 392.155 95.8481 391.706C97.8233 391.258 97.936 390.02 97.936 390.02L97.9514 389.206L87.7592 386.233L77.7256 381.915Z" fill="#26B3AB"/>
<path d="M77.6964 381.943L81.7847 379.632L96.0242 386.928C96.0242 386.928 97.9771 387.843 97.9502 389.267C97.9233 390.69 95.8109 390.912 95.8109 390.912C95.8109 390.912 94.0378 391.188 91.7506 389.949C89.4635 388.709 77.6964 381.943 77.6964 381.943Z" fill="#52C1B2"/>
<path d="M77.6898 381.943L81.7565 379.617L84.8111 381.178L87.7403 387.688L77.6898 381.943Z" fill="#FBD62B"/>
<path d="M77.6897 381.943L77.6734 382.808L87.7239 388.552L87.7403 387.683L77.6897 381.943Z" fill="#F3BB1D"/>
</g>
<g clip-path="url(#clip1_2209_2598)">
<path d="M911.041 201.921L921.301 193.469C921.301 193.469 922.256 192.587 922.139 191.959L921.957 190.973C921.945 190.872 921.896 190.779 921.82 190.712L918.245 192.081L908.112 200.891L911.041 201.921Z" fill="#F17067"/>
<path d="M905.494 199.828L917.056 190.863C917.056 190.863 918.726 189.253 920.876 189.994C922.98 190.72 921.441 192.424 921.266 192.572C921.091 192.721 910.15 201.6 910.15 201.6L905.494 199.828Z" fill="#F4807B"/>
<path d="M903.555 191.872C903.523 191.911 903.537 191.952 903.548 191.992C903.673 192.405 903.483 192.723 903.223 193.013C902.773 193.478 902.276 193.896 901.74 194.259C901.228 194.645 900.69 194.993 900.187 195.389C899.988 195.546 899.774 195.685 899.566 195.831C899.5 195.878 899.479 195.935 899.565 195.97C899.781 196.064 899.445 196.506 899.663 196.586C899.687 196.597 899.721 196.575 899.753 196.58C900.562 195.954 901.931 194.977 902.733 194.346C903.086 194.105 903.378 193.784 903.584 193.409C903.689 193.188 903.732 192.943 903.71 192.7C903.699 192.418 903.647 192.139 903.555 191.872Z" fill="#D9AF65"/>
<path d="M899.576 195.965C899.49 195.928 899.511 195.873 899.577 195.826C899.783 195.679 899.998 195.541 900.197 195.384C900.7 194.986 901.24 194.64 901.751 194.254C902.262 193.868 902.797 193.497 903.226 193.01C903.482 192.721 903.672 192.403 903.551 191.988C903.541 191.97 903.537 191.949 903.538 191.928C903.539 191.906 903.546 191.886 903.558 191.869C903.349 191.424 902.951 191.253 902.508 191.146C901.799 190.977 901.101 191.093 900.424 191.285C899.916 191.433 899.44 191.677 899.023 192.003C898.228 192.614 897.439 193.232 896.646 193.844C896.379 194.051 896.108 194.252 895.843 194.462" fill="#F7D186"/>
<path d="M915.328 192.208L906.754 198.841L911.75 200.282L913.972 198.645L915.328 192.208Z" fill="#FCD630"/>
<path d="M914.013 198.498L911.137 200.748L912.202 200.956L913.82 199.642L914.013 198.498Z" fill="#F3BB1D"/>
<path d="M921.52 203.827L893.771 193.591C893.771 193.591 892.73 193.233 891.937 193.426C891.454 193.543 890.15 194.394 890.107 195.108C889.994 197.014 892.697 197.713 892.697 197.713L895.763 199.439L922.611 209.478C923.013 209.193 923.384 208.868 923.719 208.506C923.965 208.238 924.145 207.798 924.142 207.088C924.136 204.815 921.52 203.827 921.52 203.827Z" fill="#F7D186"/>
<path d="M920.561 204.663L892.812 194.426C892.812 194.426 890.169 193.504 890.049 195.411C889.929 197.319 891.733 198.553 891.733 198.553L894.794 200.276L921.348 209.689C921.348 209.689 923.188 210.197 923.182 207.923C923.177 205.648 920.561 204.663 920.561 204.663Z" fill="#D9AF65"/>
<path d="M896.991 198.901L897.343 201.173L893.601 199.86C893.601 199.86 897.069 198.886 896.991 198.901Z" fill="#C18E3B"/>
<path d="M909.141 203.213L909.568 205.521L905.754 204.17C905.754 204.17 909.222 203.198 909.141 203.213Z" fill="#C18E3B"/>
<path d="M893.076 196.778C893.027 196.759 892.974 196.756 892.924 196.767C892.873 196.779 892.827 196.805 892.791 196.842C892.426 197.091 892.096 197.408 891.711 197.619C890.339 198.667 889.816 199.043 888.449 200.095C887.778 200.579 887.663 201.55 887.773 201.711C887.835 201.804 888.437 202.699 890.2 202.421C891.533 202.212 892.614 201.316 893.674 200.541C895.001 199.552 895.511 199.28 896.807 198.248C896.881 198.185 896.874 198.171 896.788 198.146C896.436 198.021 893.821 197.073 893.076 196.778Z" fill="#F7D186"/>
<path d="M896.834 198.114C896.918 198.141 896.927 198.153 896.853 198.216C895.557 199.242 895.045 199.515 893.721 200.509C892.236 201.64 890.367 202.997 888.422 202.226C888.165 202.075 887.937 201.88 887.75 201.649C887.764 201.871 887.805 202.091 887.871 202.304C888.164 202.75 888.766 202.995 889.237 203.079C891.358 203.342 892.228 202.403 893.847 201.272L896.734 199.131L896.942 198.967C897.032 198.887 896.925 198.143 896.834 198.114Z" fill="#D9AF65"/>
<path d="M908.953 202.355L909.119 203.252L897.25 212.94C897.25 212.94 894.694 215.094 892.672 214.974C890.651 214.854 890.337 213.651 890.337 213.651L890.189 212.851L899.759 208.254L908.953 202.355Z" fill="#26B3AB"/>
<path d="M908.987 202.378L904.576 200.766L891.719 210.289C891.719 210.289 889.941 211.51 890.2 212.91C890.459 214.31 892.579 214.184 892.579 214.184C892.579 214.184 894.374 214.167 896.428 212.571C898.482 210.974 908.987 202.378 908.987 202.378Z" fill="#52C1B2"/>
<path d="M908.993 202.376L904.601 200.745L901.843 202.784L900.015 209.684L908.993 202.376Z" fill="#FBD62B"/>
<path d="M908.993 202.377L909.15 203.227L900.172 210.535L900.014 209.68L908.993 202.377Z" fill="#F3BB1D"/>
</g>
<g clip-path="url(#clip2_2209_2598)">
<path d="M1137.14 257.376L1150.32 255.655C1150.32 255.655 1151.6 255.413 1151.84 254.819L1152.2 253.886C1152.25 253.794 1152.25 253.69 1152.23 253.592L1148.47 252.856L1135.21 254.95L1137.14 257.376Z" fill="#F17067"/>
<path d="M1133.55 252.66L1148.11 251.194C1148.11 251.194 1150.38 250.715 1151.81 252.483C1153.2 254.215 1151 254.842 1150.77 254.876C1150.54 254.909 1136.56 256.632 1136.56 256.632L1133.55 252.66Z" fill="#F4807B"/>
<path d="M1136.13 244.887C1136.08 244.902 1136.07 244.946 1136.06 244.984C1135.94 245.401 1135.61 245.57 1135.24 245.678C1134.61 245.833 1133.97 245.923 1133.32 245.947C1132.68 246.003 1132.04 246.012 1131.41 246.081C1131.16 246.109 1130.9 246.113 1130.65 246.127C1130.56 246.131 1130.52 246.168 1130.57 246.244C1130.7 246.438 1130.18 246.635 1130.33 246.818C1130.34 246.84 1130.38 246.84 1130.41 246.86C1131.43 246.759 1133.1 246.658 1134.12 246.548C1134.55 246.531 1134.96 246.413 1135.34 246.205C1135.54 246.073 1135.71 245.889 1135.82 245.671C1135.96 245.426 1136.06 245.162 1136.13 244.887Z" fill="#D9AF65"/>
<path d="M1130.58 246.245C1130.53 246.168 1130.58 246.132 1130.66 246.128C1130.91 246.112 1131.17 246.11 1131.42 246.082C1132.06 246.012 1132.7 246.004 1133.33 245.948C1133.97 245.893 1134.62 245.861 1135.25 245.676C1135.62 245.567 1135.95 245.398 1136.06 244.983C1136.06 244.962 1136.07 244.941 1136.08 244.924C1136.1 244.907 1136.11 244.894 1136.13 244.885C1136.19 244.397 1135.94 244.041 1135.62 243.715C1135.11 243.197 1134.46 242.924 1133.78 242.728C1133.28 242.584 1132.74 242.538 1132.22 242.593C1131.22 242.69 1130.22 242.794 1129.22 242.893C1128.89 242.927 1128.55 242.953 1128.22 242.991" fill="#F7D186"/>
<path d="M1145.93 251.416L1135.14 252.491L1138.61 256.363L1141.37 256.153L1145.93 251.416Z" fill="#FCD630"/>
<path d="M1141.48 256.051L1137.85 256.433L1138.64 257.174L1140.71 256.919L1141.48 256.051Z" fill="#F3BB1D"/>
<path d="M1145.02 264.551L1126.92 241.153C1126.92 241.153 1126.23 240.298 1125.45 240.041C1124.98 239.884 1123.43 239.913 1123.01 240.496C1121.9 242.051 1123.82 244.078 1123.82 244.078L1125.51 247.168L1142.94 269.92C1143.43 269.892 1143.92 269.812 1144.4 269.683C1144.75 269.587 1145.13 269.31 1145.51 268.706C1146.71 266.776 1145.02 264.551 1145.02 264.551Z" fill="#F7D186"/>
<path d="M1143.76 264.751L1125.67 241.353C1125.67 241.353 1123.91 239.17 1122.8 240.722C1121.69 242.275 1122.56 244.279 1122.56 244.279L1124.24 247.363L1141.76 269.43C1141.76 269.43 1143.05 270.836 1144.25 268.905C1145.45 266.974 1143.76 264.751 1143.76 264.751Z" fill="#D9AF65"/>
<path d="M1126.84 247.363L1125.93 249.476L1123.45 246.378C1123.45 246.378 1126.91 247.392 1126.84 247.363Z" fill="#C18E3B"/>
<path d="M1134.85 257.463L1133.98 259.646L1131.47 256.478C1131.47 256.478 1134.92 257.494 1134.85 257.463Z" fill="#C18E3B"/>
<path d="M1124.64 243.486C1124.61 243.445 1124.57 243.414 1124.52 243.397C1124.47 243.38 1124.42 243.377 1124.37 243.39C1123.92 243.408 1123.48 243.501 1123.04 243.476C1121.32 243.636 1120.68 243.677 1118.96 243.845C1118.13 243.899 1117.52 244.66 1117.53 244.856C1117.53 244.967 1117.57 246.045 1119.21 246.745C1120.45 247.275 1121.84 247.089 1123.15 246.994C1124.8 246.86 1125.38 246.899 1127.02 246.713C1127.12 246.698 1127.12 246.682 1127.06 246.616C1126.83 246.323 1125.12 244.132 1124.64 243.486Z" fill="#F7D186"/>
<path d="M1127.12 246.612C1127.18 246.68 1127.18 246.695 1127.08 246.71C1125.44 246.892 1124.86 246.852 1123.21 246.992C1121.35 247.163 1119.05 247.322 1117.81 245.636C1117.67 245.372 1117.58 245.086 1117.54 244.791C1117.44 244.987 1117.36 245.194 1117.3 245.41C1117.31 245.943 1117.69 246.471 1118.05 246.792C1119.7 248.139 1120.94 247.805 1122.91 247.706L1126.49 247.422L1126.76 247.394C1126.88 247.374 1127.18 246.686 1127.12 246.612Z" fill="#D9AF65"/>
<path d="M1135.14 256.637L1134.81 257.485L1119.61 259.401C1119.61 259.401 1116.3 259.871 1114.65 258.697C1113 257.523 1113.37 256.337 1113.37 256.337L1113.67 255.58L1124.22 256.76L1135.14 256.637Z" fill="#26B3AB"/>
<path d="M1135.16 256.674L1132.28 252.967L1116.32 254.219C1116.32 254.219 1114.17 254.312 1113.65 255.636C1113.12 256.96 1114.99 257.978 1114.99 257.978C1114.99 257.978 1116.52 258.916 1119.11 258.652C1121.69 258.388 1135.16 256.674 1135.16 256.674Z" fill="#52C1B2"/>
<path d="M1135.17 256.676L1132.31 252.963L1128.89 253.228L1123.68 258.109L1135.17 256.676Z" fill="#FBD62B"/>
<path d="M1135.17 256.677L1134.85 257.481L1123.36 258.913L1123.68 258.105L1135.17 256.677Z" fill="#F3BB1D"/>
</g>
<g clip-path="url(#clip3_2209_2598)">
<path d="M215.994 401.217L227.497 407.881C227.497 407.881 228.582 408.595 228.57 409.234L228.551 410.236C228.556 410.338 228.523 410.437 228.458 410.516L224.708 409.749L213.273 402.711L215.994 401.217Z" fill="#F17067"/>
<path d="M210.864 404.188L223.734 411.145C223.734 411.145 225.644 412.46 227.645 411.379C229.601 410.319 227.805 408.889 227.608 408.771C227.412 408.653 215.168 401.679 215.168 401.679L210.864 404.188Z" fill="#F4807B"/>
<path d="M210.25 412.353C210.212 412.32 210.219 412.277 210.223 412.236C210.279 411.807 210.039 411.525 209.736 411.281C209.215 410.896 208.657 410.565 208.069 410.294C207.502 409.997 206.913 409.742 206.353 409.433C206.131 409.311 205.897 409.209 205.668 409.098C205.595 409.063 205.565 409.01 205.644 408.961C205.842 408.833 205.438 408.452 205.64 408.338C205.663 408.323 205.699 408.339 205.73 408.329C206.631 408.815 208.14 409.554 209.034 410.046C209.422 410.227 209.763 410.496 210.027 410.832C210.167 411.033 210.25 411.267 210.267 411.511C210.303 411.791 210.297 412.075 210.25 412.353Z" fill="#D9AF65"/>
<path d="M205.655 408.965C205.577 409.016 205.606 409.067 205.68 409.102C205.907 409.214 206.141 409.315 206.363 409.437C206.925 409.748 207.513 410.002 208.081 410.299C208.648 410.596 209.236 410.875 209.739 411.286C210.039 411.529 210.278 411.811 210.226 412.24C210.22 412.26 210.219 412.282 210.223 412.302C210.228 412.323 210.238 412.342 210.253 412.357C210.119 412.83 209.754 413.064 209.335 413.241C208.664 413.524 207.956 413.524 207.256 413.445C206.73 413.381 206.222 413.218 205.757 412.965C204.873 412.491 203.994 412.011 203.111 411.536C202.814 411.376 202.514 411.222 202.218 411.058" fill="#F7D186"/>
<path d="M221.809 410.101L212.268 404.956L216.962 402.719L219.421 403.972L221.809 410.101Z" fill="#FCD630"/>
<path d="M219.486 404.109L216.281 402.359L217.298 401.98L219.109 403.012L219.486 404.109Z" fill="#F3BB1D"/>
<path d="M226.022 397.627L200.317 412.255C200.317 412.255 199.348 412.778 198.533 412.717C198.038 412.681 196.613 412.054 196.454 411.357C196.031 409.495 198.583 408.363 198.583 408.363L201.326 406.16L226.176 391.873C226.619 392.088 227.038 392.349 227.427 392.651C227.714 392.876 227.963 393.28 228.076 393.982C228.442 396.225 226.022 397.627 226.022 397.627Z" fill="#F7D186"/>
<path d="M224.939 396.957L199.234 411.587C199.234 411.587 196.777 412.928 196.347 411.066C195.917 409.204 197.496 407.692 197.496 407.692L200.234 405.492L224.895 391.87C224.895 391.87 226.628 391.068 226.993 393.313C227.359 395.558 224.939 396.957 224.939 396.957Z" fill="#D9AF65"/>
<path d="M202.626 406.491L202.602 404.192L199.125 406.098C199.125 406.098 202.706 406.493 202.626 406.491Z" fill="#C18E3B"/>
<path d="M213.909 400.253L213.954 397.906L210.411 399.862C210.411 399.862 213.992 400.254 213.909 400.253Z" fill="#C18E3B"/>
<path d="M199.11 409.224C199.065 409.25 199.013 409.262 198.962 409.259C198.91 409.256 198.86 409.237 198.819 409.206C198.418 409.02 198.04 408.762 197.626 408.616C196.101 407.807 195.524 407.521 194.004 406.706C193.262 406.338 192.99 405.399 193.073 405.222C193.119 405.12 193.567 404.139 195.352 404.126C196.7 404.114 197.914 404.821 199.086 405.413C200.556 406.172 201.104 406.358 202.551 407.163C202.635 407.214 202.629 407.229 202.549 407.268C202.222 407.449 199.797 408.81 199.11 409.224Z" fill="#F7D186"/>
<path d="M202.599 407.293C202.678 407.252 202.685 407.239 202.601 407.188C201.155 406.388 200.606 406.202 199.138 405.438C197.487 404.564 195.422 403.531 193.629 404.609C193.4 404.799 193.207 405.029 193.06 405.288C193.038 405.066 193.042 404.843 193.072 404.622C193.289 404.134 193.843 403.794 194.294 403.634C196.343 403.029 197.355 403.813 199.137 404.664L202.335 406.305L202.567 406.433C202.668 406.497 202.685 407.249 202.599 407.293Z" fill="#D9AF65"/>
<path d="M213.864 401.13L213.881 400.218L200.59 392.598C200.59 392.598 197.717 390.89 195.741 391.338C193.766 391.787 193.654 393.025 193.654 393.025L193.638 393.838L203.83 396.812L213.864 401.13Z" fill="#26B3AB"/>
<path d="M213.893 401.102L209.805 403.413L195.565 396.117C195.565 396.117 193.613 395.202 193.639 393.778C193.666 392.355 195.779 392.133 195.779 392.133C195.779 392.133 197.552 391.857 199.839 393.096C202.126 394.336 213.893 401.102 213.893 401.102Z" fill="#52C1B2"/>
<path d="M213.9 401.102L209.833 403.428L206.779 401.867L203.849 395.357L213.9 401.102Z" fill="#FBD62B"/>
<path d="M213.9 401.102L213.916 400.237L203.866 394.493L203.849 395.362L213.9 401.102Z" fill="#F3BB1D"/>
</g>
<g clip-path="url(#clip4_2209_2598)">
<path d="M481.508 298.075L493.01 304.738C493.01 304.738 494.096 305.453 494.084 306.091L494.065 307.094C494.069 307.195 494.036 307.295 493.972 307.373L490.221 306.607L478.786 299.569L481.508 298.075Z" fill="#F17067"/>
<path d="M476.377 301.045L489.248 308.003C489.248 308.003 491.158 309.318 493.158 308.236C495.115 307.176 493.318 305.747 493.122 305.629C492.925 305.51 480.682 298.536 480.682 298.536L476.377 301.045Z" fill="#F4807B"/>
<path d="M475.763 309.21C475.725 309.178 475.733 309.134 475.737 309.094C475.792 308.665 475.553 308.382 475.249 308.139C474.729 307.754 474.17 307.423 473.582 307.152C473.015 306.855 472.427 306.599 471.866 306.29C471.644 306.168 471.41 306.066 471.182 305.956C471.108 305.92 471.079 305.868 471.157 305.819C471.355 305.691 470.951 305.309 471.154 305.195C471.176 305.18 471.213 305.196 471.243 305.187C472.144 305.672 473.654 306.412 474.548 306.904C474.936 307.084 475.276 307.353 475.541 307.689C475.68 307.89 475.763 308.124 475.781 308.368C475.816 308.648 475.81 308.932 475.763 309.21Z" fill="#D9AF65"/>
<path d="M471.169 305.823C471.09 305.874 471.12 305.925 471.193 305.96C471.42 306.072 471.654 306.172 471.876 306.295C472.438 306.605 473.027 306.859 473.594 307.156C474.161 307.453 474.749 307.732 475.252 308.143C475.553 308.386 475.792 308.669 475.74 309.098C475.733 309.118 475.732 309.139 475.737 309.16C475.742 309.18 475.752 309.199 475.766 309.214C475.633 309.687 475.268 309.921 474.848 310.099C474.177 310.381 473.469 310.381 472.77 310.302C472.244 310.239 471.735 310.076 471.27 309.822C470.386 309.349 469.507 308.869 468.624 308.394C468.327 308.233 468.027 308.079 467.732 307.915" fill="#F7D186"/>
<path d="M487.323 306.958L477.782 301.813L482.475 299.576L484.934 300.829L487.323 306.958Z" fill="#FCD630"/>
<path d="M484.999 300.967L481.795 299.216L482.811 298.837L484.622 299.869L484.999 300.967Z" fill="#F3BB1D"/>
<path d="M491.535 294.484L465.83 309.113C465.83 309.113 464.861 309.636 464.047 309.575C463.552 309.538 462.126 308.911 461.967 308.214C461.544 306.352 464.097 305.221 464.097 305.221L466.84 303.018L491.689 288.73C492.132 288.946 492.552 289.207 492.94 289.509C493.228 289.733 493.476 290.137 493.589 290.839C493.955 293.082 491.535 294.484 491.535 294.484Z" fill="#F7D186"/>
<path d="M490.453 293.814L464.747 308.445C464.747 308.445 462.29 309.785 461.86 307.923C461.43 306.061 463.009 304.549 463.009 304.549L465.747 302.349L490.409 288.727C490.409 288.727 492.141 287.926 492.507 290.171C492.872 292.416 490.453 293.814 490.453 293.814Z" fill="#D9AF65"/>
<path d="M468.14 303.349L468.116 301.049L464.638 302.956C464.638 302.956 468.219 303.35 468.14 303.349Z" fill="#C18E3B"/>
<path d="M479.423 297.11L479.467 294.764L475.925 296.719C475.925 296.719 479.505 297.112 479.423 297.11Z" fill="#C18E3B"/>
<path d="M464.623 306.081C464.578 306.107 464.527 306.119 464.475 306.116C464.423 306.113 464.374 306.095 464.332 306.064C463.931 305.878 463.553 305.619 463.14 305.473C461.615 304.664 461.037 304.379 459.517 303.563C458.776 303.195 458.504 302.256 458.586 302.079C458.632 301.977 459.08 300.996 460.865 300.983C462.214 300.971 463.427 301.678 464.599 302.27C466.07 303.029 466.617 303.215 468.065 304.021C468.148 304.071 468.143 304.086 468.063 304.125C467.736 304.306 465.31 305.668 464.623 306.081Z" fill="#F7D186"/>
<path d="M468.113 304.15C468.191 304.11 468.198 304.096 468.115 304.046C466.669 303.245 466.12 303.059 464.651 302.295C463.001 301.421 460.935 300.388 459.142 301.466C458.914 301.657 458.721 301.887 458.573 302.145C458.551 301.923 458.556 301.7 458.586 301.48C458.802 300.992 459.356 300.651 459.808 300.491C461.857 299.886 462.868 300.671 464.65 301.522L467.848 303.163L468.08 303.29C468.182 303.354 468.198 304.106 468.113 304.15Z" fill="#D9AF65"/>
<path d="M479.377 297.987L479.395 297.076L466.103 289.455C466.103 289.455 463.23 287.748 461.255 288.196C459.28 288.644 459.167 289.882 459.167 289.882L459.152 290.696L469.344 293.669L479.377 297.987Z" fill="#26B3AB"/>
<path d="M479.407 297.959L475.318 300.27L461.079 292.974C461.079 292.974 459.126 292.059 459.153 290.636C459.18 289.212 461.292 288.991 461.292 288.991C461.292 288.991 463.065 288.714 465.352 289.954C467.64 291.193 479.407 297.959 479.407 297.959Z" fill="#52C1B2"/>
<path d="M479.413 297.959L475.347 300.285L472.292 298.725L469.363 292.215L479.413 297.959Z" fill="#FBD62B"/>
<path d="M479.413 297.959L479.43 297.095L469.379 291.35L469.363 292.22L479.413 297.959Z" fill="#F3BB1D"/>
</g>
<g clip-path="url(#clip5_2209_2598)">
<path d="M983.928 379.355L993.495 388.584C993.495 388.584 994.481 389.431 995.091 389.244L996.05 388.951C996.149 388.927 996.236 388.868 996.293 388.785L994.526 385.389L984.617 376.328L983.928 379.355Z" fill="#F17067"/>
<path d="M985.375 373.606L995.6 384.07C995.6 384.07 997.389 385.545 996.899 387.766C996.418 389.938 994.55 388.604 994.382 388.447C994.214 388.291 984.145 378.434 984.145 378.434L985.375 373.606Z" fill="#F4807B"/>
<path d="M993.057 370.772C993.015 370.745 992.975 370.764 992.938 370.779C992.541 370.95 992.203 370.798 991.886 370.572C991.372 370.178 990.901 369.732 990.479 369.241C990.037 368.777 989.63 368.282 989.179 367.828C989 367.648 988.838 367.451 988.669 367.261C988.615 367.2 988.556 367.187 988.53 367.276C988.462 367.501 987.984 367.217 987.93 367.444C987.922 367.469 987.947 367.5 987.946 367.532C988.661 368.265 989.787 369.513 990.505 370.237C990.785 370.561 991.138 370.814 991.534 370.976C991.765 371.055 992.013 371.071 992.252 371.021C992.531 370.978 992.802 370.894 993.057 370.772Z" fill="#D9AF65"/>
<path d="M988.537 367.285C988.564 367.196 988.621 367.21 988.675 367.271C988.846 367.459 989.006 367.656 989.185 367.836C989.638 368.291 990.044 368.787 990.485 369.251C990.927 369.715 991.357 370.204 991.89 370.574C992.206 370.796 992.544 370.949 992.942 370.781C992.959 370.769 992.979 370.762 993 370.761C993.022 370.76 993.043 370.764 993.061 370.774C993.479 370.516 993.604 370.1 993.659 369.648C993.746 368.926 993.552 368.245 993.284 367.594C993.078 367.106 992.782 366.661 992.41 366.284C991.712 365.564 991.009 364.851 990.31 364.133C990.074 363.891 989.843 363.645 989.604 363.406" fill="#F7D186"/>
<path d="M994.067 382.506L986.499 374.746L985.638 379.873L987.518 381.893L994.067 382.506Z" fill="#FCD630"/>
<path d="M987.668 381.918L985.104 379.318L985.02 380.399L986.509 381.857L987.668 381.918Z" fill="#F3BB1D"/>
<path d="M983.23 389.984L990.234 361.248C990.234 361.248 990.47 360.173 990.188 359.407C990.017 358.941 989.022 357.743 988.308 357.781C986.402 357.886 986.015 360.651 986.015 360.651L984.65 363.894L977.74 391.713C978.069 392.079 978.435 392.411 978.833 392.702C979.127 392.916 979.584 393.044 980.29 392.96C982.547 392.695 983.23 389.984 983.23 389.984Z" fill="#F7D186"/>
<path d="M982.289 389.126L989.294 360.39C989.294 360.39 989.908 357.659 988 357.757C986.091 357.855 985.071 359.789 985.071 359.789L983.708 363.026L977.386 390.481C977.386 390.481 977.091 392.367 979.35 392.102C981.609 391.837 982.289 389.126 982.289 389.126Z" fill="#D9AF65"/>
<path d="M985.326 365.052L983.109 365.661L983.986 361.794C983.986 361.794 985.349 365.128 985.326 365.052Z" fill="#C18E3B"/>
<path d="M982.428 377.616L980.184 378.303L981.091 374.36C981.091 374.36 982.452 377.695 982.428 377.616Z" fill="#C18E3B"/>
<path d="M986.988 360.92C987 360.87 986.998 360.817 986.981 360.768C986.964 360.719 986.932 360.676 986.891 360.645C986.602 360.311 986.25 360.019 985.996 359.661C984.799 358.417 984.365 357.94 983.164 356.703C982.606 356.091 981.629 356.087 981.481 356.215C981.396 356.287 980.576 356.988 981.053 358.708C981.413 360.007 982.426 360.98 983.317 361.944C984.451 363.149 984.78 363.625 985.952 364.795C986.024 364.862 986.037 364.852 986.052 364.765C986.136 364.401 986.779 361.695 986.988 360.92Z" fill="#F7D186"/>
<path d="M986.09 364.806C986.072 364.893 986.061 364.903 985.99 364.837C984.822 363.666 984.493 363.189 983.355 361.987C982.061 360.64 980.5 358.939 981.044 356.918C981.165 356.646 981.333 356.398 981.541 356.185C981.322 356.225 981.108 356.29 980.904 356.38C980.494 356.722 980.32 357.348 980.29 357.826C980.271 359.962 981.303 360.719 982.611 362.199L985.067 364.823L985.254 365.011C985.343 365.091 986.071 364.9 986.09 364.806Z" fill="#D9AF65"/>
<path d="M983.259 377.331L982.387 377.598L971.408 366.912C971.408 366.912 968.977 364.618 968.865 362.596C968.753 360.574 969.913 360.125 969.913 360.125L970.691 359.887L976.35 368.87L983.259 377.331Z" fill="#26B3AB"/>
<path d="M983.24 377.367L984.338 372.801L973.411 361.114C973.411 361.114 971.994 359.488 970.633 359.905C969.272 360.322 969.639 362.414 969.639 362.414C969.639 362.414 969.86 364.195 971.681 366.053C973.501 367.912 983.24 377.367 983.24 377.367Z" fill="#52C1B2"/>
<path d="M983.242 377.374L984.361 372.824L982.021 370.316L974.957 369.288L983.242 377.374Z" fill="#FBD62B"/>
<path d="M983.242 377.373L982.415 377.626L974.131 369.541L974.962 369.286L983.242 377.373Z" fill="#F3BB1D"/>
</g>
<g clip-path="url(#clip6_2209_2598)">
<path d="M667.348 105.977L672.441 93.6986C672.441 93.6986 672.87 92.4716 672.472 91.9716L671.849 91.1866C671.791 91.1033 671.704 91.0442 671.605 91.0208L669.091 93.9074L664.279 106.443L667.348 105.977Z" fill="#F17067"/>
<path d="M661.468 106.733L667.47 93.3896C667.47 93.3896 668.189 91.185 670.435 90.8293C672.633 90.4837 672.074 92.7102 671.989 92.9236C671.905 93.137 666.411 106.112 666.411 106.112L661.468 106.733Z" fill="#F4807B"/>
<path d="M656.022 100.617C656.011 100.667 656.044 100.697 656.072 100.726C656.376 101.033 656.358 101.403 656.264 101.781C656.085 102.403 655.842 103.005 655.539 103.577C655.269 104.158 654.956 104.718 654.699 105.304C654.596 105.535 654.473 105.759 654.358 105.985C654.321 106.058 654.329 106.118 654.422 106.109C654.656 106.09 654.567 106.639 654.798 106.607C654.824 106.605 654.844 106.57 654.874 106.559C655.295 105.626 656.045 104.122 656.457 103.188C656.656 102.809 656.762 102.389 656.769 101.961C656.758 101.717 656.681 101.48 656.547 101.276C656.405 101.032 656.228 100.81 656.022 100.617Z" fill="#D9AF65"/>
<path d="M654.429 106.1C654.336 106.107 654.328 106.049 654.365 105.976C654.477 105.749 654.602 105.527 654.704 105.296C654.962 104.707 655.276 104.149 655.546 103.568C655.817 102.987 656.114 102.408 656.265 101.777C656.356 101.401 656.374 101.031 656.072 100.722C656.055 100.71 656.041 100.694 656.032 100.675C656.023 100.656 656.02 100.634 656.022 100.613C655.629 100.319 655.197 100.355 654.756 100.468C654.051 100.652 653.489 101.081 652.981 101.569C652.602 101.938 652.296 102.377 652.081 102.861C651.666 103.774 651.259 104.689 650.846 105.602C650.708 105.91 650.562 106.215 650.428 106.524" fill="#F7D186"/>
<path d="M666.574 95.3887L662.117 105.27L667.205 104.197L668.398 101.709L666.574 95.3887Z" fill="#FCD630"/>
<path d="M668.366 101.56L666.883 104.896L667.92 104.58L668.733 102.661L668.366 101.56Z" fill="#F3BB1D"/>
<path d="M677.496 102.742L648.189 106.727C648.189 106.727 647.102 106.9 646.492 107.443C646.121 107.772 645.369 109.136 645.666 109.787C646.46 111.523 649.175 110.872 649.175 110.872L652.693 110.957L681.112 107.22C681.333 106.78 681.508 106.318 681.633 105.842C681.725 105.489 681.677 105.017 681.341 104.391C680.27 102.387 677.496 102.742 677.496 102.742Z" fill="#F7D186"/>
<path d="M677.042 103.931L647.734 107.915C647.734 107.915 644.968 108.342 645.757 110.082C646.546 111.823 648.718 112.065 648.718 112.065L652.23 112.151L680.096 107.999C680.096 107.999 681.959 107.584 680.886 105.579C679.814 103.573 677.042 103.931 677.042 103.931Z" fill="#D9AF65"/>
<path d="M653.524 109.904L654.901 111.746L650.981 112.342C650.981 112.342 653.586 109.855 653.524 109.904Z" fill="#C18E3B"/>
<path d="M666.277 108.01L667.737 109.847L663.735 110.445C663.735 110.445 666.342 107.958 666.277 108.01Z" fill="#C18E3B"/>
<path d="M649.071 109.868C649.019 109.875 648.971 109.896 648.932 109.93C648.893 109.964 648.864 110.009 648.85 110.059C648.645 110.45 648.501 110.884 648.261 111.252C647.541 112.82 647.255 113.398 646.543 114.969C646.177 115.712 646.531 116.623 646.704 116.713C646.802 116.767 647.754 117.274 649.181 116.201C650.259 115.391 650.794 114.092 651.366 112.911C652.073 111.414 652.395 110.935 653.056 109.415C653.092 109.325 653.078 109.316 652.991 109.333C652.622 109.388 649.868 109.779 649.071 109.868Z" fill="#F7D186"/>
<path d="M653.016 109.284C653.103 109.269 653.117 109.275 653.081 109.366C652.419 110.88 652.095 111.361 651.392 112.86C650.611 114.556 649.598 116.631 647.518 116.863C647.221 116.851 646.928 116.785 646.654 116.67C646.771 116.859 646.91 117.034 647.068 117.191C647.536 117.447 648.183 117.381 648.639 117.234C650.634 116.471 650.962 115.233 651.861 113.475L653.406 110.229L653.513 109.987C653.554 109.874 653.11 109.267 653.016 109.284Z" fill="#D9AF65"/>
<path d="M665.708 107.341L666.276 108.055L660.342 122.18C660.342 122.18 659.096 125.281 657.255 126.125C655.413 126.968 654.572 126.053 654.572 126.053L654.066 125.415L660.358 116.864L665.708 107.341Z" fill="#26B3AB"/>
<path d="M665.749 107.345L661.097 107.991L654.214 122.435C654.214 122.435 653.218 124.348 654.103 125.462C654.989 126.577 656.802 125.47 656.802 125.47C656.802 125.47 658.379 124.614 659.443 122.24C660.508 119.866 665.749 107.345 665.749 107.345Z" fill="#52C1B2"/>
<path d="M665.754 107.341L661.11 107.962L659.631 111.057L661.256 118.008L665.754 107.341Z" fill="#FBD62B"/>
<path d="M665.754 107.341L666.292 108.018L661.794 118.685L661.253 118.004L665.754 107.341Z" fill="#F3BB1D"/>
</g>
<defs>
<filter id="filter0_f_2209_2598" x="-757.041" y="170.801" width="1807.73" height="1044.99" filterUnits="userSpaceOnUse" color-interpolation-filters="sRGB">
<feFlood flood-opacity="0" result="BackgroundImageFix"/>
<feBlend mode="normal" in="SourceGraphic" in2="BackgroundImageFix" result="shape"/>
<feGaussianBlur stdDeviation="0.765905" result="effect1_foregroundBlur_2209_2598"/>
</filter>
<filter id="filter1_f_2209_2598" x="-697.006" y="205.462" width="1687.67" height="975.669" filterUnits="userSpaceOnUse" color-interpolation-filters="sRGB">
<feFlood flood-opacity="0" result="BackgroundImageFix"/>
<feBlend mode="normal" in="SourceGraphic" in2="BackgroundImageFix" result="shape"/>
<feGaussianBlur stdDeviation="0.765905" result="effect1_foregroundBlur_2209_2598"/>
</filter>
<filter id="filter2_f_2209_2598" x="-636.972" y="240.123" width="1567.6" height="906.348" filterUnits="userSpaceOnUse" color-interpolation-filters="sRGB">
<feFlood flood-opacity="0" result="BackgroundImageFix"/>
<feBlend mode="normal" in="SourceGraphic" in2="BackgroundImageFix" result="shape"/>
<feGaussianBlur stdDeviation="0.765905" result="effect1_foregroundBlur_2209_2598"/>
</filter>
<filter id="filter3_f_2209_2598" x="-877.111" y="101.48" width="2047.87" height="1183.63" filterUnits="userSpaceOnUse" color-interpolation-filters="sRGB">
<feFlood flood-opacity="0" result="BackgroundImageFix"/>
<feBlend mode="normal" in="SourceGraphic" in2="BackgroundImageFix" result="shape"/>
<feGaussianBlur stdDeviation="0.765905" result="effect1_foregroundBlur_2209_2598"/>
</filter>
<filter id="filter4_f_2209_2598" x="-817.076" y="136.141" width="1927.8" height="1114.31" filterUnits="userSpaceOnUse" color-interpolation-filters="sRGB">
<feFlood flood-opacity="0" result="BackgroundImageFix"/>
<feBlend mode="normal" in="SourceGraphic" in2="BackgroundImageFix" result="shape"/>
<feGaussianBlur stdDeviation="0.765905" result="effect1_foregroundBlur_2209_2598"/>
</filter>
<linearGradient id="paint0_linear_2209_2598" x1="-442.975" y1="1312.71" x2="-522.964" y2="161.321" gradientUnits="userSpaceOnUse">
<stop stop-color="#9A5EFC"/>
<stop offset="1" stop-color="#00DCE8"/>
</linearGradient>
<linearGradient id="paint1_linear_2209_2598" x1="-442.975" y1="1312.71" x2="-522.964" y2="161.321" gradientUnits="userSpaceOnUse">
<stop stop-color="#9A5EFC"/>
<stop offset="1" stop-color="#00DCE8"/>
</linearGradient>
<linearGradient id="paint2_linear_2209_2598" x1="-442.974" y1="1312.71" x2="-522.963" y2="161.321" gradientUnits="userSpaceOnUse">
<stop stop-color="#9A5EFC"/>
<stop offset="1" stop-color="#00DCE8"/>
</linearGradient>
<linearGradient id="paint3_linear_2209_2598" x1="-442.975" y1="1312.71" x2="-522.964" y2="161.321" gradientUnits="userSpaceOnUse">
<stop stop-color="#9A5EFC"/>
<stop offset="1" stop-color="#00DCE8"/>
</linearGradient>
<linearGradient id="paint4_linear_2209_2598" x1="-442.975" y1="1312.71" x2="-522.964" y2="161.321" gradientUnits="userSpaceOnUse">
<stop stop-color="#9A5EFC"/>
<stop offset="1" stop-color="#00DCE8"/>
</linearGradient>
<clipPath id="clip0_2209_2598">
<rect width="35.5954" height="22.0869" fill="white" transform="translate(63.1069 369.168) rotate(1.08114)"/>
</clipPath>
<clipPath id="clip1_2209_2598">
<rect width="35.5954" height="22.0869" fill="white" transform="matrix(-0.98333 0.181832 0.181832 0.98333 921.295 187.393)"/>
</clipPath>
<clipPath id="clip2_2209_2598">
<rect width="35.5954" height="22.0869" fill="white" transform="matrix(-0.930027 -0.367492 -0.367492 0.930027 1153.54 250.5)"/>
</clipPath>
<clipPath id="clip3_2209_2598">
<rect width="35.5954" height="22.0869" fill="white" transform="translate(228.483 413.877) rotate(-178.919)"/>
</clipPath>
<clipPath id="clip4_2209_2598">
<rect width="35.5954" height="22.0869" fill="white" transform="translate(493.996 310.734) rotate(-178.919)"/>
</clipPath>
<clipPath id="clip5_2209_2598">
<rect width="35.5954" height="22.0869" fill="white" transform="matrix(-0.292842 -0.956161 -0.956161 0.292842 999.532 387.885)"/>
</clipPath>
<clipPath id="clip6_2209_2598">
<rect width="35.5954" height="22.0869" fill="white" transform="matrix(-0.782946 0.62209 0.62209 0.782946 669.583 88.3359)"/>
</clipPath>
</defs>
</svg>
